DataType=double
version=3
OpenSimVersion=4.5-2023-11-26-efcdfd3eb
endheader
time	EMG01_right_gast_med	EMG02_right_glut_max	EMG03_left_gast_med	EMG04_left_glut_max	EMG05_right_glut_med	EMG06_right_bic_fem	EMG07_right_rect_fem	EMG08_right_vast_lat	EMG09_right_vast_med	EMG10_right_tens_fasc_lat	EMG11_left_glut_med	EMG12_left_bic_fem	EMG13_left_rect_fem	EMG14_left_vast_lat	EMG15_left_vast_med	EMG16_left_tens_fasc_lat
0	-4.194803691585131	3.109923059648898	0.7546963906489307	3.988589576584713	11.99406206086422	-0.1852636232379723	0.4841542835208445	1.226414201135601	2.47901395471807	2.904467011530119	0.315174253823902	0.3352386973727583	0.3853370067441733	1.079572845996403	1.401801783598655	-1.817627250796094
0.01	-2.044120419231364	6.581898064726645	1.963860909565337	7.896584201700368	24.60599332939134	4.423504346247988	1.525473204160614	2.410522914869805	10.47358321626852	9.047814085310517	0.5680572389043056	0.4621516885430365	0.6357094730289106	1.504980376027687	2.682630238911038	-0.7024303374662351
0.02	0.1047474173070175	10.00580575540312	3.164963194555702	11.90086520839625	36.8963700064963	8.82598935310201	2.53817133201166	3.598503929490368	18.27331334690669	14.96620447005311	0.8190701734639606	0.5786202732362558	0.882398553236073	1.934315657491325	3.944176845079624	0.5147620602376419
0.03	2.248986579932484	13.35828912556907	4.343027381618061	15.98780292380477	48.77436072790495	12.99143568890544	3.514486092107184	4.778302207970081	25.82533280947987	20.62639047550213	1.06675291921641	0.6836522046012591	1.122715976197988	2.363488273900017	5.17633307830891	1.830457873129208
0.04	4.387410728032521	16.61628685140963	5.483630990700376	20.14193270606996	60.15242658610283	16.89208548638727	4.447002714761058	5.937949442099665	33.07898225396053	25.99717576307454	1.30971026741821	0.7764837888736208	1.354037205700219	2.788317499284029	6.369009512884861	3.239996363516143
0.05	6.52056550499112	19.75729105918505	6.573207690512868	24.34596545292417	70.94750346527577	20.50366509117294	5.328762002724651	7.065760194088808	39.9865064648441	31.04974526025651	1.546637163263689	0.8566115663903595	1.573848328785328	3.204596013464675	7.512258077165843	4.737534236470459
0.06	8.650794167687263	22.75960089564776	7.599307966137621	28.58083828855303	81.08212664549916	23.80579822493734	6.153361014941166	8.150520646309946	46.50368900209388	35.75797322423094	1.776342151927321	0.9238210064376811	1.779790136914995	3.608155161154321	8.596394147605709	6.316039587919395
0.07000000000000001	10.78225977666474	25.60256881710746	8.550811985521831	32.82580902004582	90.4854789167623	26.78233402166979	6.915044845292139	9.181665946155967	52.59041504291284	40.09870504321266	1.997768673460978	0.9782114980829364	1.969698729937777	3.994931218730845	9.612117110709258	7.967295328143539
0.08	12.92092067140855	28.2668364328147	9.41809281108023	37.05859699193996	99.09434310244154	29.42158201492077	7.608787775632518	10.14944227464659	58.21115107729829	44.05200829671478	2.210013957697204	1.020216966087989	2.141642249445086	4.361032222544762	10.5506281666438	9.681914335279057
0.09	15.07445680136171	30.73455662316206	10.19313097669941	41.25557188104799	106.8539389470375	31.71645015267738	8.230362116147669	11.04504989846538	63.33533443269366	47.60138871612315	2.412345353703166	1.050621519584404	2.293953535125542	4.702804846241485	11.40374416361685	11.44936894812388
0.1	17.25214544444336	32.98959858797392	10.8695833615307	45.39199079185343	113.7186250006526	33.66448513638424	8.776393153021207	11.86076380361776	67.93767061187059	50.73396684931335	2.604213991398109	1.070569645291028	2.425258597828577	5.016900699787646	12.16400624654201	13.25803752155102
0.11	19.4646859508499	35.0177324329326	11.44281033188403	49.44228273729015	119.6524501766707	35.26781659728141	9.244398978244821	12.59002938043982	71.99834061722764	53.4406113533876	2.785265719539633	1.081570563385623	2.534500825890086	5.300341341217003	12.82478218646461	15.09527064329534
0.12	21.72397449751281	36.80678992476003	11.90986558595246	53.38037821804743	124.6295464324868	36.53300833857529	9.632814604074099	13.22753210398491	75.50312254496738	55.71602499278636	2.955349295909434	1.085496453164168	2.620960826178719	5.550581272589977	13.38036147198013	16.94747928984091
0.13	24.04283152412382	38.34679832242023	12.26945336083961	57.18008008502731	128.6343609254692	37.47082184867703	9.941000446351632	13.76924178257518	78.44343180030599	57.55877970648353	3.114521826438015	1.084574328517044	2.68427179025019	5.765568209945834	13.82604253891663	18.80024674548959
0.14	26.43468654545812	39.63008474851498	12.52185781574291	60.81547004089891	131.6617307779172	38.09589976251091	10.16923575362308	14.21243307987544	80.81628340312237	58.97129771192767	3.263051458374807	1.081371417174782	2.72443029403984	5.943799915234084	14.15821177178829	20.63846556905913
0.15	28.91322714178506	40.65134920080555	12.66884947554844	64.26134293709762	133.7168058493563	38.42637934044033	10.31869785811923	14.5556843852478	82.62417936483062	59.95977688546583	3.401417321132729	1.078773987928916	2.741802497961846	6.084376808588082	14.3744140405155	22.44650030503534
0.16	31.49202062873583	41.40770497073461	12.71357353793913	67.49365864096816	134.8148259145241	38.48344768912668	10.39142838504061	14.79885694313811	83.87492486444118	60.53406070190425	3.530306674723839	1.079959678441672	2.737125803102469	6.187049437512365	14.47341455611476	24.20837602696389
0.17	34.18411789538666	41.89868611251364	12.66042459678294	70.48999906658749	134.980760084075	38.29085137058674	10.39028783375917	14.94305579584699	84.58137878064082	60.70745539525177	3.650609183710289	1.088363491832411	2.711506103226643	6.252259692236816	14.45525181906551	25.90799213687288
0.18	37.00164933474909	42.12622267099057	12.51491195141444	73.23001627065648	134.2488189584247	37.87437361307902	10.31890014775586	14.99057373105522	84.76114610885141	60.49649923903763	3.763408223254799	1.107637733814576	2.666410817956321	6.281174444262358	14.32128142588454	27.52936003694298
0.19	39.95542295483924	42.09458537153136	12.28351920914188	75.69585634577638	132.661853341774	37.26129260077735	10.18158893715918	14.94481918205007	84.43622097149793	59.92069073563329	3.869969187631019	1.141606238287141	2.603657897146467	6.275710060381138	14.07421047197344	29.0568622849746
0.2	43.05453468423254	41.81030228950956	11.97356140323438	77.87254317914002	130.2706563155369	36.47983405291993	9.983306931461421	14.81022907822692	83.63258890340521	59.00218380005753	3.971724908191254	1.194213285871624	2.52540097343841	6.238546052827175	13.71812225057476	30.47552967084101
0.21	46.30600052410317	41.28205063293896	11.59304238081278	79.74830621256034	127.1331872298417	35.55863054367637	9.729560102529701	14.59216807205748	82.37979599540363	57.76545843121798	4.070258427321633	1.269467687267501	2.434110833409569	6.173126060125341	13.25849091993649	31.77133137172915
0.22	49.71441962563149	40.52052703564542	11.15051476537311	81.31483747540508	123.3137363962732	34.52619906428972	9.426327769911412	14.29681623245406	80.71049089909042	56.23697489892101	4.167283435166039	1.37138260198293	2.332553384261751	6.083644498764863	12.70218573676887	32.93147203610615
0.23	53.28167664243902	39.53829964913376	10.65494435626014	82.56746537088019	118.8820484784163	33.41044732397192	9.079979901470388	13.93104791356325	78.65994460803344	54.44481843170978	4.264622636023748	1.50391178143853	2.22376429763545	5.975017616701058	12.05746425122728	33.9446884311351
0.24	57.0066907578661	38.34964512114517	10.1155804194455	83.50523574716314	113.912421734285	32.23821812447844	8.697192754988912	13.50230485602791	76.26555323534882	52.41834014999431	4.364184223506189	1.670883038166612	2.111020498490916	5.852838295557798	11.33395357240825	34.80153733143654
0.25	60.88521756524379	36.97037344059937	9.541832996250307	84.13089482389969	108.4827996207267	31.03487977035859	8.28486395063741	13.01846658391473	73.56633064308944	50.18779896171197	4.46793658553704	1.875929838559754	1.99780864005171	5.723314693641107	10.54261860904278	35.49466576363766
0.26	64.90970845702438	35.41764352809517	8.943158104598057	84.45077402312508	102.673870253579	29.82396896663491	7.850027970272293	12.48772091805136	70.60239957054524	47.78400860817434	4.577881380415731	2.122421999844014	1.887790682355245	5.593193530015999	9.695716168278365	36.01905458792712
0.27	69.06923024616893	33.70977235436168	8.328951479460402	84.47458340008012	96.56818743135736	28.626891078214	7.399772921592686	11.91843710709001	67.41449073757535	45.23799400935282	4.696025216380139	2.413396550689741	1.784766679721214	5.469669357386205	8.806733904077475	36.37222662529582
0.28	73.34944535174949	31.86604040189977	7.708451274109768	84.21512669318513	90.24932450932505	27.46268100431982	6.94115923487345	11.31904379838342	64.04345914632229	42.5806613039645	4.824350287695304	2.751489894521725	1.692634882041335	5.360281551873943	7.890313266309399	36.55441103077511
0.29	77.73265031445493	29.90649640949369	7.09064994401358	83.68795523895999	83.80106959924993	26.34782628674807	6.481140856901693	10.69791383694309	60.52982593559211	39.8424863289353	4.964784439645902	3.138872489674796	1.615349269713566	5.272800990740359	6.96215581667018	36.56865648150733
0.3	82.19786821541361	27.85176439813722	6.484215361978274	82.91097932880302	77.30666764277395	25.29615247139262	6.026489481786549	10.06325763822196	56.91335296580296	37.05322657712695	5.119171249981254	3.577187310354214	1.556874675253568	5.215108499823662	6.038912563168448	36.42088739573788
0.31	86.72098919231752	25.72285592726531	5.897421036468833	81.90405450148381	70.84811225838291	24.31876922709367	5.583722353290749	9.423026601842217	53.2326559464803	34.24166160741345	5.289240825830899	4.067493358914888	1.521139690042392	5.195067163111179	5.13805626590962	36.11990003657693
0.32	91.27495289586582	23.54099037571409	5.338085119908792	80.6885579448023	64.50548810290984	23.42407432890579	5.159034153213249	8.784827744133546	49.52486052275455	31.43536615192049	5.476582102392872	4.610215470270118	1.511987600360468	5.220390566265367	4.277736926428019	35.6772985807822
0.33	95.82996759660755	21.32742571713474	4.81351773155802	79.28696775590758	58.35636269694535	22.61781134859719	4.758233478487269	8.155850452037894	45.8253043944261	28.66051880255499	5.682617460070195	5.205101608804723	1.533125637207726	5.298509030937785	3.47662089074875	35.1073743650125
